<svg xmlns="http://www.w3.org/2000/svg" viewBox="0 0 582 90" width="582" height="90" shape-rendering="crispEdges" role="img" aria-label="640K Games">
<rect width="582" height="90" fill="#000000"/>
<rect x="30" y="24" width="18" height="6" fill="#a8a8a8"/><rect x="24" y="30" width="6" height="6" fill="#a8a8a8"/><rect x="48" y="30" width="6" height="6" fill="#a8a8a8"/><rect x="24" y="36" width="6" height="6" fill="#a8a8a8"/><rect x="24" y="42" width="6" height="6" fill="#a8a8a8"/><rect x="24" y="48" width="6" height="6" fill="#a8a8a8"/><rect x="24" y="54" width="6" height="6" fill="#a8a8a8"/><rect x="48" y="54" width="6" height="6" fill="#a8a8a8"/><rect x="30" y="60" width="18" height="6" fill="#a8a8a8"/><rect x="72" y="30" width="6" height="6" fill="#a8a8a8"/><rect x="72" y="36" width="6" height="6" fill="#a8a8a8"/><rect x="72" y="48" width="6" height="6" fill="#a8a8a8"/><rect x="72" y="54" width="6" height="6" fill="#a8a8a8"/><rect x="96" y="24" width="6" height="6" fill="#a8a8a8"/><rect x="96" y="30" width="6" height="6" fill="#a8a8a8"/><rect x="102" y="36" width="6" height="6" fill="#a8a8a8"/><rect x="108" y="42" width="6" height="6" fill="#a8a8a8"/><rect x="114" y="48" width="6" height="6" fill="#a8a8a8"/><rect x="120" y="54" width="6" height="6" fill="#a8a8a8"/><rect x="120" y="60" width="6" height="6" fill="#a8a8a8"/><rect x="132" y="30" width="6" height="6" fill="#a8a8a8"/><rect x="138" y="36" width="6" height="6" fill="#a8a8a8"/><rect x="144" y="42" width="6" height="6" fill="#a8a8a8"/><rect x="138" y="48" width="6" height="6" fill="#a8a8a8"/><rect x="132" y="54" width="6" height="6" fill="#a8a8a8"/><rect x="174" y="24" width="18" height="6" fill="#ffc83c"/><rect x="168" y="30" width="6" height="6" fill="#ffc83c"/><rect x="168" y="36" width="6" height="6" fill="#ffc83c"/><rect x="168" y="42" width="24" height="6" fill="#ffc83c"/><rect x="168" y="48" width="6" height="6" fill="#ffc83c"/><rect x="192" y="48" width="6" height="6" fill="#ffc83c"/><rect x="168" y="54" width="6" height="6" fill="#ffc83c"/><rect x="192" y="54" width="6" height="6" fill="#ffc83c"/><rect x="174" y="60" width="18" height="6" fill="#ffc83c"/><rect x="204" y="24" width="6" height="6" fill="#ffc83c"/><rect x="228" y="24" width="6" height="6" fill="#ffc83c"/><rect x="204" y="30" width="6" height="6" fill="#ffc83c"/><rect x="228" y="30" width="6" height="6" fill="#ffc83c"/><rect x="204" y="36" width="6" height="6" fill="#ffc83c"/><rect x="228" y="36" width="6" height="6" fill="#ffc83c"/><rect x="204" y="42" width="30" height="6" fill="#ffc83c"/><rect x="228" y="48" width="6" height="6" fill="#ffc83c"/><rect x="228" y="54" width="6" height="6" fill="#ffc83c"/><rect x="228" y="60" width="6" height="6" fill="#ffc83c"/><rect x="246" y="24" width="18" height="6" fill="#ffc83c"/><rect x="240" y="30" width="6" height="6" fill="#ffc83c"/><rect x="264" y="30" width="6" height="6" fill="#ffc83c"/><rect x="240" y="36" width="6" height="6" fill="#ffc83c"/><rect x="258" y="36" width="12" height="6" fill="#ffc83c"/><rect x="240" y="42" width="6" height="6" fill="#ffc83c"/><rect x="252" y="42" width="6" height="6" fill="#ffc83c"/><rect x="264" y="42" width="6" height="6" fill="#ffc83c"/><rect x="240" y="48" width="12" height="6" fill="#ffc83c"/><rect x="264" y="48" width="6" height="6" fill="#ffc83c"/><rect x="240" y="54" width="6" height="6" fill="#ffc83c"/><rect x="264" y="54" width="6" height="6" fill="#ffc83c"/><rect x="246" y="60" width="18" height="6" fill="#ffc83c"/><rect x="276" y="24" width="6" height="6" fill="#ffc83c"/><rect x="300" y="24" width="6" height="6" fill="#ffc83c"/><rect x="276" y="30" width="6" height="6" fill="#ffc83c"/><rect x="294" y="30" width="6" height="6" fill="#ffc83c"/><rect x="276" y="36" width="6" height="6" fill="#ffc83c"/><rect x="288" y="36" width="6" height="6" fill="#ffc83c"/><rect x="276" y="42" width="12" height="6" fill="#ffc83c"/><rect x="276" y="48" width="6" height="6" fill="#ffc83c"/><rect x="288" y="48" width="6" height="6" fill="#ffc83c"/><rect x="276" y="54" width="6" height="6" fill="#ffc83c"/><rect x="294" y="54" width="6" height="6" fill="#ffc83c"/><rect x="276" y="60" width="6" height="6" fill="#ffc83c"/><rect x="300" y="60" width="6" height="6" fill="#ffc83c"/><rect x="354" y="24" width="18" height="6" fill="#e8e8f0"/><rect x="348" y="30" width="6" height="6" fill="#e8e8f0"/><rect x="372" y="30" width="6" height="6" fill="#e8e8f0"/><rect x="348" y="36" width="6" height="6" fill="#e8e8f0"/><rect x="348" y="42" width="6" height="6" fill="#e8e8f0"/><rect x="360" y="42" width="18" height="6" fill="#e8e8f0"/><rect x="348" y="48" width="6" height="6" fill="#e8e8f0"/><rect x="372" y="48" width="6" height="6" fill="#e8e8f0"/><rect x="348" y="54" width="6" height="6" fill="#e8e8f0"/><rect x="372" y="54" width="6" height="6" fill="#e8e8f0"/><rect x="354" y="60" width="18" height="6" fill="#e8e8f0"/><rect x="390" y="24" width="18" height="6" fill="#e8e8f0"/><rect x="384" y="30" width="6" height="6" fill="#e8e8f0"/><rect x="408" y="30" width="6" height="6" fill="#e8e8f0"/><rect x="384" y="36" width="6" height="6" fill="#e8e8f0"/><rect x="408" y="36" width="6" height="6" fill="#e8e8f0"/><rect x="384" y="42" width="30" height="6" fill="#e8e8f0"/><rect x="384" y="48" width="6" height="6" fill="#e8e8f0"/><rect x="408" y="48" width="6" height="6" fill="#e8e8f0"/><rect x="384" y="54" width="6" height="6" fill="#e8e8f0"/><rect x="408" y="54" width="6" height="6" fill="#e8e8f0"/><rect x="384" y="60" width="6" height="6" fill="#e8e8f0"/><rect x="408" y="60" width="6" height="6" fill="#e8e8f0"/><rect x="420" y="24" width="6" height="6" fill="#e8e8f0"/><rect x="444" y="24" width="6" height="6" fill="#e8e8f0"/><rect x="420" y="30" width="12" height="6" fill="#e8e8f0"/><rect x="438" y="30" width="12" height="6" fill="#e8e8f0"/><rect x="420" y="36" width="6" height="6" fill="#e8e8f0"/><rect x="432" y="36" width="6" height="6" fill="#e8e8f0"/><rect x="444" y="36" width="6" height="6" fill="#e8e8f0"/><rect x="420" y="42" width="6" height="6" fill="#e8e8f0"/><rect x="432" y="42" width="6" height="6" fill="#e8e8f0"/><rect x="444" y="42" width="6" height="6" fill="#e8e8f0"/><rect x="420" y="48" width="6" height="6" fill="#e8e8f0"/><rect x="444" y="48" width="6" height="6" fill="#e8e8f0"/><rect x="420" y="54" width="6" height="6" fill="#e8e8f0"/><rect x="444" y="54" width="6" height="6" fill="#e8e8f0"/><rect x="420" y="60" width="6" height="6" fill="#e8e8f0"/><rect x="444" y="60" width="6" height="6" fill="#e8e8f0"/><rect x="456" y="24" width="30" height="6" fill="#e8e8f0"/><rect x="456" y="30" width="6" height="6" fill="#e8e8f0"/><rect x="456" y="36" width="6" height="6" fill="#e8e8f0"/><rect x="456" y="42" width="24" height="6" fill="#e8e8f0"/><rect x="456" y="48" width="6" height="6" fill="#e8e8f0"/><rect x="456" y="54" width="6" height="6" fill="#e8e8f0"/><rect x="456" y="60" width="30" height="6" fill="#e8e8f0"/><rect x="498" y="24" width="24" height="6" fill="#e8e8f0"/><rect x="492" y="30" width="6" height="6" fill="#e8e8f0"/><rect x="492" y="36" width="6" height="6" fill="#e8e8f0"/><rect x="498" y="42" width="18" height="6" fill="#e8e8f0"/><rect x="516" y="48" width="6" height="6" fill="#e8e8f0"/><rect x="516" y="54" width="6" height="6" fill="#e8e8f0"/><rect x="492" y="60" width="24" height="6" fill="#e8e8f0"/><rect x="528" y="54" width="30" height="6" fill="#e8e8f0" class="cursor"/><rect x="528" y="60" width="30" height="6" fill="#e8e8f0" class="cursor"/>
</svg>
